<?xml version="1.0" encoding="utf-8"?>
<!-- Generator: Adobe Illustrator 25.3.0, SVG Export Plug-In . SVG Version: 6.00 Build 0)  -->
<svg version="1.1" id="Layer_1" xmlns="http://www.w3.org/2000/svg" xmlns:xlink="http://www.w3.org/1999/xlink" x="0px" y="0px"
	 viewBox="0 0 2000 2000" style="enable-background:new 0 0 2000 2000;" xml:space="preserve">
<style type="text/css">
	.st0{fill:#050606;}
</style>
<g>
	<g>
		<g>
			<path class="st0" d="M1684.1,896.4c29.4-29.4,52.5-63.7,68.7-101.9c16.7-39.5,25.2-81.5,25.2-124.8c0-43.3-8.5-85.2-25.2-124.8
				c-16.1-38.2-39.3-72.4-68.7-101.9c-29.4-29.4-63.7-52.5-101.9-68.7c-39.5-16.7-81.5-25.2-124.8-25.2c-43.3,0-85.2,8.5-124.8,25.2
				c-38.2,16.1-72.4,39.3-101.9,68.7c-29.4,29.4-52.5,63.7-68.7,101.9c-16.7,39.5-25.2,81.5-25.2,124.8c0,43.3,8.5,85.2,25.2,124.8
				c16.1,38.2,39.2,72.4,68.7,101.9c12.2,12.2,25.2,23.3,38.9,33.2V1334H1228c-15.9,0-29.8,9-36.1,23.6c-6.4,14.6-3.7,30.9,7.1,42.6
				l230.8,250.8c7.5,8.1,18,12.7,29,12.7h0.1c11,0,21.6-4.7,29.1-12.9l228-250.8c10.7-11.7,13.3-28,6.9-42.5
				c-6.4-14.5-20.2-23.5-36.1-23.5h-41.7V929.6C1658.9,919.6,1671.9,908.6,1684.1,896.4z M1260.9,866.3
				c-25.5-25.5-45.6-55.2-59.6-88.3c-14.5-34.2-21.8-70.6-21.8-108.2s7.3-73.9,21.8-108.2c14-33.1,34-62.8,59.6-88.3
				c25.5-25.5,55.2-45.6,88.3-59.6c34.2-14.5,70.6-21.8,108.2-21.8c37.5,0,73.9,7.3,108.2,21.8c33.1,14,62.8,34,88.3,59.6
				c25.5,25.5,45.6,55.2,59.6,88.3c14.5,34.2,21.8,70.6,21.8,108.2s-7.3,73.9-21.8,108.2c-14,33.1-34,62.8-59.6,88.3
				c-25.5,25.5-55.2,45.6-88.3,59.6c-34.2,14.5-70.6,21.8-108.2,21.8c-37.5,0-73.9-7.3-108.2-21.8
				C1316.2,911.8,1286.5,891.8,1260.9,866.3z M1602.5,958.3v418.3h77.2l-220.9,242.9l-223.6-242.9h77.1V958.3h5.4
				c4.9,2.4,9.9,4.6,15,6.8c39.5,16.7,81.5,25.2,124.8,25.2c43.3,0,85.2-8.5,124.8-25.2c5.1-2.1,10-4.4,15-6.8H1602.5z"/>
		</g>
	</g>
	<g>
		<g>
			<path class="st0" d="M378.4,1100c-29.4,29.4-52.5,63.7-68.7,101.9c-16.7,39.5-25.2,81.5-25.2,124.8c0,43.3,8.5,85.2,25.2,124.8
				c16.1,38.2,39.3,72.4,68.7,101.9c29.4,29.4,63.7,52.5,101.9,68.7c39.5,16.7,81.5,25.2,124.8,25.2c43.3,0,85.2-8.5,124.8-25.2
				c38.2-16.1,72.4-39.3,101.9-68.7c29.4-29.4,52.5-63.7,68.7-101.9c16.7-39.5,25.2-81.5,25.2-124.8c0-43.3-8.5-85.2-25.2-124.8
				c-16.1-38.2-39.2-72.4-68.7-101.9c-12.2-12.2-25.2-23.3-38.9-33.2V662.4h41.7c15.9,0,29.8-9,36.1-23.6
				c6.4-14.6,3.7-30.9-7.1-42.6L632.7,345.4c-7.5-8.1-18-12.7-29-12.7h-0.1c-11,0-21.6,4.7-29.1,12.9l-228,250.8
				c-10.7,11.7-13.3,28-6.9,42.5c6.4,14.5,20.2,23.5,36.1,23.5h41.7v404.4C403.6,1076.7,390.6,1087.8,378.4,1100z M801.5,1130.1
				c25.5,25.5,45.6,55.2,59.6,88.3c14.5,34.2,21.8,70.6,21.8,108.2c0,37.5-7.3,73.9-21.8,108.2c-14,33.1-34,62.8-59.6,88.3
				c-25.5,25.5-55.2,45.6-88.3,59.6c-34.2,14.5-70.6,21.8-108.2,21.8s-73.9-7.3-108.2-21.8c-33.1-14-62.8-34-88.3-59.6
				c-25.5-25.5-45.6-55.2-59.6-88.3c-14.5-34.2-21.8-70.6-21.8-108.2c0-37.5,7.3-73.9,21.8-108.2c14-33.1,34-62.8,59.6-88.3
				c25.5-25.5,55.2-45.6,88.3-59.6c34.2-14.5,70.6-21.8,108.2-21.8s73.9,7.3,108.2,21.8C746.3,1084.6,776,1104.6,801.5,1130.1z
				 M460,1038.1V619.8h-77.2l220.9-242.9l223.6,242.9h-77.1v418.3h-5.4c-4.9-2.4-9.9-4.6-15-6.8c-39.5-16.7-81.5-25.2-124.8-25.2
				c-43.3,0-85.2,8.5-124.8,25.2c-5.1,2.1-10,4.4-15,6.8H460z"/>
		</g>
	</g>
	<g>
		<path d="M480,1403.5h-42c-6.1,0-10.4-1.4-13-4.1c-2.6-2.7-3.9-7-3.9-13v-103.2c0-6.1,1.3-10.4,4-13.1c2.7-2.7,6.9-4,12.9-4h44.5
			c6.6,0,12.2,0.4,17,1.2c4.8,0.8,9.1,2.4,12.9,4.7c3.2,1.9,6.1,4.4,8.6,7.4c2.5,3,4.4,6.2,5.7,9.8c1.3,3.6,2,7.4,2,11.4
			c0,13.7-6.9,23.8-20.6,30.2c18,5.7,27.1,16.9,27.1,33.5c0,7.7-2,14.6-5.9,20.7c-3.9,6.2-9.2,10.7-15.9,13.6c-4.2,1.7-9,3-14.4,3.7
			C493.6,1403.2,487.3,1403.5,480,1403.5z M449,1287.1v35.5h25.5c6.9,0,12.3-0.7,16.1-2c3.8-1.3,6.7-3.8,8.7-7.5
			c1.6-2.6,2.3-5.6,2.3-8.8c0-6.9-2.5-11.5-7.4-13.8c-4.9-2.3-12.5-3.4-22.6-3.4H449z M478,1342.6H449v40.1h29.9
			c18.8,0,28.2-6.8,28.2-20.3c0-6.9-2.4-12-7.3-15.1C494.9,1344.1,487.6,1342.6,478,1342.6z"/>
		<path d="M552.2,1346.8v-66c0-5.6,1.3-9.8,3.8-12.6c2.5-2.8,5.9-4.2,10-4.2c4.3,0,7.7,1.4,10.3,4.2c2.5,2.8,3.8,7,3.8,12.6v67.5
			c0,7.7,0.9,14.1,2.6,19.2c1.7,5.2,4.8,9.1,9.1,12c4.4,2.8,10.5,4.3,18.4,4.3c10.9,0,18.5-2.9,23-8.7c4.5-5.8,6.7-14.5,6.7-26.3
			v-68.1c0-5.7,1.2-9.9,3.7-12.7c2.5-2.8,5.8-4.2,10-4.2c4.2,0,7.6,1.4,10.2,4.2c2.6,2.8,3.9,7,3.9,12.7v66c0,10.7-1,19.7-3.1,26.9
			c-2.1,7.2-6,13.5-11.8,18.9c-5,4.6-10.8,8-17.4,10.1c-6.6,2.1-14.4,3.2-23.2,3.2c-10.6,0-19.6-1.1-27.3-3.4
			c-7.6-2.3-13.8-5.8-18.6-10.6c-4.8-4.8-8.3-10.9-10.6-18.4C553.4,1366.1,552.2,1357.2,552.2,1346.8z"/>
		<path d="M728.4,1388.9v-43.5l-33.5-52c-2.9-4.7-5-8.3-6.2-11c-1.2-2.6-1.8-4.9-1.8-6.8c0-3.2,1.2-5.9,3.7-8.2
			c2.5-2.3,5.5-3.5,9.1-3.5c3.8,0,6.7,1.1,8.7,3.2s4.9,6.4,8.8,12.9l25.7,41.7l25.9-41.7c1.6-2.6,2.9-4.7,3.9-6.5
			c1.1-1.7,2.2-3.4,3.5-4.9c1.3-1.5,2.7-2.7,4.3-3.5c1.6-0.8,3.5-1.2,5.7-1.2c3.5,0,6.4,1.1,8.8,3.4c2.3,2.3,3.5,4.9,3.5,7.9
			c0,2.4-0.6,4.9-1.8,7.3c-1.2,2.4-3.2,5.8-6.1,10.1l-34.4,52.7v43.5c0,5.7-1.3,9.9-3.9,12.7c-2.6,2.8-6,4.2-10,4.2
			c-4.1,0-7.5-1.4-10-4.2C729.7,1398.9,728.4,1394.7,728.4,1388.9z"/>
	</g>
	<g>
		<path d="M1331.7,705.6c0,8.3-2.1,15.8-6.4,22.4c-4.3,6.6-10.5,11.8-18.8,15.5s-18,5.6-29.3,5.6c-13.5,0-24.7-2.6-33.5-7.7
			c-6.2-3.7-11.3-8.6-15.2-14.7c-3.9-6.1-5.9-12.1-5.9-17.9c0-3.4,1.2-6.3,3.5-8.7c2.3-2.4,5.3-3.6,8.9-3.6c2.9,0,5.4,0.9,7.4,2.8
			c2,1.9,3.8,4.7,5.2,8.3c1.7,4.4,3.6,8,5.7,11c2,2.9,4.9,5.4,8.6,7.3c3.7,1.9,8.5,2.9,14.5,2.9c8.2,0,14.9-1.9,20.1-5.8
			c5.2-3.8,7.7-8.6,7.7-14.4c0-4.6-1.4-8.3-4.2-11.1c-2.8-2.8-6.4-5-10.8-6.5c-4.4-1.5-10.3-3.1-17.7-4.8c-9.9-2.3-18.1-5-24.8-8.1
			c-6.6-3.1-11.9-7.3-15.8-12.6c-3.9-5.3-5.9-12-5.9-19.9c0-7.6,2.1-14.3,6.2-20.1c4.1-5.9,10.1-10.4,17.9-13.5
			c7.8-3.2,17-4.7,27.5-4.7c8.4,0,15.7,1,21.9,3.1c6.1,2.1,11.3,4.9,15.3,8.3c4.1,3.5,7,7.1,8.9,10.9c1.9,3.8,2.8,7.5,2.8,11.1
			c0,3.3-1.2,6.3-3.5,8.9c-2.3,2.7-5.3,4-8.8,4c-3.2,0-5.6-0.8-7.3-2.4c-1.7-1.6-3.5-4.2-5.4-7.8c-2.5-5.2-5.5-9.2-9-12.1
			c-3.5-2.9-9.1-4.4-16.9-4.4c-7.2,0-13,1.6-17.4,4.7c-4.4,3.2-6.6,6.9-6.6,11.4c0,2.7,0.7,5.1,2.2,7.1c1.5,2,3.6,3.7,6.2,5.2
			c2.6,1.4,5.3,2.6,8,3.4c2.7,0.8,7.1,2,13.3,3.6c7.7,1.8,14.7,3.8,21,6c6.3,2.2,11.6,4.8,16,8c4.4,3.1,7.8,7.1,10.3,11.8
			C1330.4,692.9,1331.7,698.7,1331.7,705.6z"/>
		<path d="M1445.7,631h-62.7v33.7h57.7c4.2,0,7.4,1,9.5,2.9c2.1,1.9,3.1,4.4,3.1,7.5c0,3.1-1,5.7-3.1,7.6c-2.1,2-5.2,2.9-9.6,2.9
			h-57.7v39.1h64.8c4.4,0,7.7,1,9.9,3c2.2,2,3.3,4.7,3.3,8.1c0,3.2-1.1,5.9-3.3,7.9c-2.2,2-5.5,3-9.9,3h-75.6
			c-6.1,0-10.4-1.3-13.1-4c-2.7-2.7-4-7-4-13V626.6c0-4,0.6-7.3,1.8-9.8c1.2-2.5,3-4.4,5.6-5.5c2.5-1.2,5.8-1.7,9.7-1.7h73.4
			c4.4,0,7.7,1,9.9,2.9c2.2,2,3.2,4.5,3.2,7.7c0,3.2-1.1,5.9-3.2,7.8C1453.5,630,1450.2,631,1445.7,631z"/>
		<path d="M1510.4,624.1V724h56.4c4.5,0,7.9,1.1,10.3,3.3c2.4,2.2,3.6,4.9,3.6,8.2c0,3.4-1.2,6.1-3.6,8.2c-2.4,2.1-5.8,3.1-10.4,3.1
			h-67.1c-6.1,0-10.4-1.3-13.1-4c-2.7-2.7-4-7-4-13V624.1c0-5.6,1.3-9.8,3.8-12.6c2.5-2.8,5.9-4.2,10-4.2c4.2,0,7.6,1.4,10.2,4.2
			C1509.2,614.2,1510.4,618.4,1510.4,624.1z"/>
		<path d="M1626.3,624.1V724h56.4c4.5,0,7.9,1.1,10.3,3.3c2.4,2.2,3.6,4.9,3.6,8.2c0,3.4-1.2,6.1-3.6,8.2c-2.4,2.1-5.8,3.1-10.4,3.1
			h-67.1c-6.1,0-10.4-1.3-13.1-4c-2.7-2.7-4-7-4-13V624.1c0-5.6,1.3-9.8,3.8-12.6c2.5-2.8,5.9-4.2,10-4.2c4.2,0,7.6,1.4,10.2,4.2
			C1625,614.2,1626.3,618.4,1626.3,624.1z"/>
	</g>
</g>
</svg>
