<?xml version="1.0" encoding="utf-8"?>
<!-- Generator: Adobe Illustrator 25.3.0, SVG Export Plug-In . SVG Version: 6.00 Build 0)  -->
<svg version="1.1" id="Layer_1" xmlns="http://www.w3.org/2000/svg" xmlns:xlink="http://www.w3.org/1999/xlink" x="0px" y="0px"
	 viewBox="0 0 512 512" style="enable-background:new 0 0 512 512;" xml:space="preserve">
<path d="M83.7,231.5H52.6c-8,0-14.6,6.5-14.6,14.5v170.5c0,8,6.5,14.5,14.6,14.5h31.1c8,0,14.6-6.5,14.6-14.5V246
	C98.3,238,91.7,231.5,83.7,231.5z M84.7,416.5c0,0.6-0.5,1-1,1H52.6c-0.6,0-1-0.5-1-1V246c0-0.6,0.5-1,1-1h31.1c0.6,0,1,0.5,1,1
	L84.7,416.5L84.7,416.5z"/>
<path d="M177.1,283H146c-8,0-14.6,6.5-14.6,14.5v119c0,8,6.5,14.5,14.6,14.5h31.1c8,0,14.6-6.5,14.6-14.5v-119
	C191.7,289.5,185.2,283,177.1,283z M178.1,416.5c0,0.6-0.5,1-1,1H146c-0.6,0-1-0.5-1-1v-119c0-0.6,0.5-1,1-1h31.1c0.6,0,1,0.5,1,1
	V416.5z"/>
<path d="M270.5,231.5h-31.1c-8,0-14.6,6.5-14.6,14.5v170.5c0,8,6.5,14.5,14.6,14.5h31.1c8,0,14.6-6.5,14.6-14.5V246
	C285.1,238,278.6,231.5,270.5,231.5z M271.6,416.5c0,0.6-0.5,1-1,1h-31.1c-0.6,0-1-0.5-1-1V246c0-0.6,0.5-1,1-1h31.1
	c0.6,0,1,0.5,1,1V416.5z"/>
<path d="M364,260.2h-31.1c-8,0-14.6,6.5-14.6,14.5v141.8c0,8,6.5,14.5,14.6,14.5H364c8,0,14.6-6.5,14.6-14.5V274.7
	C378.6,266.7,372,260.2,364,260.2z M365,416.5c0,0.6-0.5,1-1,1h-31.1c-0.6,0-1-0.5-1-1V274.7c0-0.6,0.5-1,1-1H364c0.6,0,1,0.5,1,1
	V416.5z"/>
<path d="M457.4,181.8h-31.1c-8,0-14.6,6.5-14.6,14.5v220.2c0,8,6.5,14.5,14.6,14.5h31.1c8,0,14.6-6.5,14.6-14.5V196.3
	C472,188.3,465.5,181.8,457.4,181.8z M458.4,416.5c0,0.6-0.5,1-1,1h-31.1c-0.6,0-1-0.5-1-1V196.3c0-0.6,0.5-1,1-1h31.1
	c0.6,0,1,0.5,1,1V416.5z"/>
<path d="M157.6,251.1c2.4,1.7,5.6,1.8,8,0l90.3-65.9l89.8,39.7c2.8,1.2,6,0.5,8-1.9l81.4-98l0,20.4c0,3.7,3,6.7,6.8,6.7
	c3.7,0,6.8-3,6.8-6.7l0-39.1c0-3.6-3.4-7.2-7.5-6.7c0,0,0,0,0,0l-39.1,4.5c-3.7,0.4-6.4,3.8-6,7.5c0.4,3.7,3.8,6.4,7.5,5.9l22.3-2.6
	l-79.4,95.6l-88.7-39.2c-2.2-1-4.8-0.7-6.8,0.7l-89.4,65.3L72.2,172c-3-2.2-7.3-1.6-9.5,1.4c-2.2,3-1.6,7.2,1.4,9.4L157.6,251.1z"/>
</svg>
