<?xml version="1.0" encoding="utf-8"?>
<!-- Generator: Adobe Illustrator 25.3.0, SVG Export Plug-In . SVG Version: 6.00 Build 0)  -->
<svg version="1.1" id="Layer_1" xmlns="http://www.w3.org/2000/svg" xmlns:xlink="http://www.w3.org/1999/xlink" x="0px" y="0px"
	 viewBox="0 0 2000 2000" style="enable-background:new 0 0 2000 2000;" xml:space="preserve">
<style type="text/css">
	.st0{fill:none;stroke:#000000;stroke-width:32;stroke-miterlimit:10;}
</style>
<g>
	<g>
		<path d="M1490.3,1588.7l-0.1,0.1l0.1,0.1l0.1-0.1L1490.3,1588.7z M1559.1,1525.1L1559.1,1525.1l0.2,0.3l0.1-0.1L1559.1,1525.1z"/>
		<path d="M1747.2,1658.3l-152.9-165.6l-0.1,0.1c-71.7-71.3-143.1-143-214.7-214.4c-3.5-3.5-8.1-6.1-12.1-9.1
			c3.6-5.6,5.5-8.6,7.6-11.6c107.8-156.2,146.4-328.1,100.5-512.2c-64.5-259-232.2-418.2-491.6-480.7c-20.3-4.9-41.2-7.6-61.8-11.3
			H792.4c-21.1,3.7-42.3,6.8-63.3,11.3C545,304.4,403.8,405.2,307.2,566.5c-59,98.5-87.2,205.9-86.7,321.5
			c0.4,73.5,9.2,145.2,35.9,213.3c98.8,251.6,282.9,393.9,552.2,421.3c127.3,13,247.2-16.6,358.8-78.9
			c23.1-12.9,45.2-27.8,68.4-42.2c20.3,20.4,40.7,41,61.2,61.4c52.7,52.8,105.4,105.5,158.2,158.2l0.2-0.2l152.9,165.6
			c18.6,20.2,44,30.4,69.4,30.4c22.9,0,45.9-8.3,64.1-25.1C1780.2,1756.3,1782.6,1696.6,1747.2,1658.3z M856.7,1477.4
			c-328.4-1-590.7-266.7-588.5-591.3c2.2-324.7,267.7-587.4,591.8-585.7c323.8,1.7,587,267.2,585.4,590.4
			C1443.4,1216.4,1182.3,1478.4,856.7,1477.4z M1715.4,1763.6c-9,8.3-20.4,12.5-31.8,12.5c-12.6,0-25.2-5.1-34.5-15.1l-158.8-172
			l-0.1-0.1l0.1-0.1l0,0c-38.8-38.7-77.5-77.4-116.2-116.2c-30.5-30.6-61.1-61.1-91.6-91.7c-3.2-3.2-6.2-6.6-8-8.5
			c22-21.8,43.5-43,66-65.2c1,0.9,4.4,3.8,7.6,7c70.4,70.3,140.7,140.7,211,211.1l0.1-0.1l0.2,0.2l158.7,171.9
			C1735.6,1716.3,1734.4,1746,1715.4,1763.6z"/>
		<path d="M857.1,1430.9c-254.6,1.6-481.9-184.3-530.9-434.4c-52.2-266.5,93.9-525.2,349.7-618c56.5-20.5,115.2-30.6,175.4-31.1
			c18.3-0.1,29.2,8.8,29.2,23.7c0,14.5-9.6,23.2-27.8,23.6c-99.9,2.1-192.1,29.3-274.2,86.7c-121,84.4-193.2,199.9-211.3,346.7
			c-28.2,228.6,100.7,442,314.1,523.7c285.6,109.3,602.7-66.9,660.9-367.2c50.2-259.3-109.4-510.8-364.6-574.4
			c-2.7-0.7-5.3-1.5-7.9-2.3c-13.8-4.4-21.4-15.8-18.5-28c3.3-14,15.9-22.1,30.7-17.8c26.8,7.8,54.1,14.9,79.7,25.8
			c173.9,74.5,284.5,204.2,325,388.7c61.8,282-110.9,566.3-399.9,637.9c-42,10.4-85.9,13.5-128.9,19.9
			C857.5,1433.2,857.3,1432.1,857.1,1430.9z"/>
		<polygon points="1490.4,1588.8 1490.2,1588.9 1490.1,1588.8 1490.3,1588.7 		"/>
		<polygon points="1559.3,1525.4 1559.3,1525.5 1559,1525.2 1559.1,1525.1 		"/>
		<polygon points="1490.4,1588.8 1490.2,1588.9 1490.1,1588.8 1490.3,1588.7 		"/>
		<polygon points="1559.3,1525.4 1559.3,1525.5 1559,1525.2 1559.1,1525.1 		"/>
	</g>
	<rect x="671.8" y="627.2" class="st0" width="174.7" height="548.5"/>
	<rect x="753.1" y="1179.4" width="12.3" height="105.3"/>
	<rect x="753.1" y="514" width="12.3" height="105.3"/>
	<rect x="984.6" y="610.2" width="12.3" height="105.3"/>
	<rect x="984.6" y="1074.4" width="12.3" height="105.3"/>
	<rect x="903.4" y="721.9" class="st0" width="174.7" height="346.2"/>
</g>
</svg>
