<?xml version="1.0" standalone="no"?>
<svg xmlns="http://www.w3.org/2000/svg" viewBox="0 0 1440 1000">
<path fill="#0099ff" fill-opacity="1" d="M0,64L26.7,69.3C53.3,75,107,85,160,85.3C213.3,85,267,75,320,64C373.3,53,427,43,480,80C533.3,117,587,203,640,213.3C693.3,224,747,160,800,144C853.3,128,907,160,960,192C1013.3,224,1067,256,1120,234.7C1173.3,213,1227,139,1280,101.3C1333.3,64,1387,64,1413,64L1440,64L1440,320L1413.3,320C1386.7,320,1333,320,1280,320C1226.7,320,1173,320,1120,320C1066.7,320,1013,320,960,320C906.7,320,853,320,800,320C746.7,320,693,320,640,320C586.7,320,533,320,480,320C426.7,320,373,320,320,320C266.7,320,213,320,160,320C106.7,320,53,320,27,320L0,320Z"></path>
</svg>